<?xml version="1.0" standalone="no"?>
<!DOCTYPE svg PUBLIC "-//W3C//DTD SVG 20010904//EN"
 "http://www.w3.org/TR/2001/REC-SVG-20010904/DTD/svg10.dtd">
<svg version="1.0" xmlns="http://www.w3.org/2000/svg"
 width="700.000000pt" height="700.000000pt" viewBox="0 0 700.000000 700.000000"
 preserveAspectRatio="xMidYMid meet">
<metadata>
Created by potrace 1.14, written by Peter Selinger 2001-2017
</metadata>
<g transform="translate(0.000000,700.000000) scale(0.100000,-0.100000)"
fill="#000000" stroke="none">
<path d="M2450 6653 c-36 -8 -69 -15 -75 -17 -5 -1 -32 -12 -59 -24 -27 -12
-50 -22 -53 -22 -2 0 -31 -18 -63 -40 -105 -72 -179 -156 -235 -267 -49 -98
-67 -181 -71 -318 -5 -148 -18 -231 -49 -307 -70 -173 -195 -304 -362 -380
-90 -40 -178 -57 -325 -62 -68 -2 -145 -9 -173 -15 -327 -77 -551 -367 -540
-700 4 -102 19 -167 60 -256 43 -94 72 -135 165 -231 128 -133 186 -238 216
-394 11 -58 10 -177 -3 -243 -26 -143 -93 -265 -205 -379 -165 -166 -232 -318
-232 -523 1 -109 19 -194 60 -285 77 -169 226 -304 400 -365 93 -32 119 -36
259 -40 66 -1 138 -6 160 -10 175 -31 353 -148 448 -293 85 -131 115 -235 122
-419 5 -155 7 -175 30 -244 92 -283 354 -479 645 -482 220 -1 350 56 542 238
156 148 302 209 498 208 189 0 341 -61 476 -190 159 -151 235 -198 373 -234
390 -101 777 145 856 546 3 17 8 87 10 156 8 273 98 456 291 595 125 90 240
124 432 129 75 2 152 9 170 14 17 5 32 8 32 6 0 -9 137 47 185 76 256 155 383
442 324 733 -31 151 -86 247 -234 400 -129 135 -194 284 -200 463 -7 205 61
368 225 538 91 95 131 151 170 242 145 343 -10 741 -350 896 -105 48 -157 59
-299 62 -69 2 -142 7 -163 10 -21 4 -41 7 -45 7 -29 1 -159 58 -215 94 -86 55
-120 86 -173 155 -56 72 -78 111 -108 196 -32 88 -38 129 -42 273 -4 131 -8
159 -36 243 -42 125 -114 231 -213 315 -58 49 -183 113 -271 138 -62 18 -212
24 -290 11 -138 -22 -270 -95 -393 -215 -114 -112 -237 -185 -347 -208 -85
-17 -119 -20 -185 -18 -187 5 -333 71 -490 222 -120 115 -247 190 -350 208
-14 3 -32 7 -40 10 -34 13 -198 11 -260 -3z"/>
</g>
</svg>
